<svg id="Layer_1" data-name="Layer 1" xmlns="http://www.w3.org/2000/svg" viewBox="0 0 512 512"><defs><style>.cls-1{fill-rule:evenodd;}</style></defs><title>a</title><path class="cls-1" d="M398.72,54.8a6.509,6.509,0,1,1,5.823-11.644l42.106,21.162a6.5,6.5,0,0,1,3.109,9.4l-21.15,42.081a6.509,6.509,0,0,1-11.644-5.822L431.951,80.15,308.479,111.188A24.758,24.758,0,0,0,305.3,98.524L425.572,68.292,398.72,54.8ZM270.477,131.532l-41.462,37.645a24.747,24.747,0,0,0-4.564-6.28,25.615,25.615,0,0,0-4.192-3.4l41.377-37.569a24.467,24.467,0,0,0,8.841,9.6Zm-86.98,56.9-45.565,2.907a24.878,24.878,0,0,0-.827-13.022l45.582-2.909a25.719,25.719,0,0,0-.481,4.989,25.108,25.108,0,0,0,1.291,8.035Zm-80.192,20.327L58.869,261.374a6.522,6.522,0,1,1-9.958-8.426l44.365-52.534A24.975,24.975,0,0,0,103.305,208.757Z"/><path class="cls-1" d="M214.182,173.165a10.225,10.225,0,1,0,0,14.461A10.237,10.237,0,0,0,214.182,173.165Z"/><path class="cls-1" d="M120.924,179.116a10.225,10.225,0,1,0,0,14.461A10.236,10.236,0,0,0,120.924,179.116Z"/><path class="cls-1" d="M290.97,103.446a10.225,10.225,0,1,0,0,14.46A10.236,10.236,0,0,0,290.97,103.446Z"/><rect x="363.814" y="170.913" width="88.498" height="261.723"/><rect x="262.241" y="203.576" width="88.498" height="229.061"/><rect x="160.669" y="245.099" width="88.498" height="187.537"/><rect x="59.097" y="298.324" width="88.498" height="134.313"/><rect x="23.471" y="445.711" width="465.057" height="23.826"/></svg>