<?xml version="1.0" encoding="utf-8"?>
<!-- Generator: Adobe Illustrator 27.0.1, SVG Export Plug-In . SVG Version: 6.00 Build 0)  -->
<svg version="1.1" id="Layer_1" xmlns="http://www.w3.org/2000/svg" xmlns:xlink="http://www.w3.org/1999/xlink" x="0px" y="0px"
	 viewBox="0 0 512 512" style="enable-background:new 0 0 512 512;" xml:space="preserve">
<path d="M162.3,177.1c36.7,52.7-8.5,83.9,13,90.4c11.8,3.5,41.4-19.1,40.5-38.7c-0.3-6.2-3.8-12.3-12.1-17.4
	c-11.5-7.1-13.9-33.7,8.9-34.7c12.4-0.5,21.7-7.1,27.4-17.3C212.8,158.5,186.1,164.8,162.3,177.1L162.3,177.1z M389.5,59.4
	c-32.5-32.5-85.3-32.5-117.8,0c-15.1,15.1-24.4,35.9-24.4,58.9c0,44.7,51.3,121.1,77,154.4c3.2,4.1,9.4,4.1,12.6,0
	c27.8-36,77-110.7,77-154.4C413.9,95.3,404.6,74.5,389.5,59.4L389.5,59.4z M365.5,85.7c-19.3-19.3-50.6-19.3-69.9,0
	c-19.3,19.3-19.3,50.6,0,69.9c19.3,19.3,50.6,19.3,69.9,0C384.8,136.3,384.8,105,365.5,85.7L365.5,85.7z M330.6,63.2
	c31.7,0,57.4,25.7,57.4,57.4s-25.7,57.4-57.4,57.4s-57.4-25.7-57.4-57.4S298.9,63.2,330.6,63.2L330.6,63.2z M133.4,279.9
	c5.1,1.4,3,9.1-2.1,7.7c-11.9-3.2-23-6.9-34-11.5c-2-0.9-3-3.2-2.2-5.2c0.9-2,3.2-3,5.2-2.2C111,273.1,122.1,276.8,133.4,279.9
	L133.4,279.9z M184.2,290.1c5.2,0.7,4.1,8.6-1.1,7.9c-11.9-1.6-22.7-3.5-34.4-6.1c-5.1-1.1-3.4-8.9,1.7-7.8
	C161.2,286.5,173.1,288.5,184.2,290.1L184.2,290.1z M223.1,293.9c5.3,0.3,4.8,8.3-0.5,8l-22.1-1.8c-5.2-0.5-4.4-8.5,0.8-7.9
	L223.1,293.9z M275.4,302.5c-6.3,0.2-12.7,0.3-19.2,0.3c-5.2,0-5.2-8,0-8c5.4,0,10.8-0.1,16.2-0.2c-2.4-4.6-5.8-8.9-9.3-12.1
	c-4.3-3.9-8.7-6.2-12.1-6c-2,0.2-3.6,1.6-4.6,4.9c-17.9,60.5-36.8,68.6-52.5,63.9c-10.7-3.2-20-12.9-24.4-13.8
	c-0.7-0.1-1.4,1-2.1,4.7c-5.3,26-20,39.2-32.7,50.6c-11.7,10.5-21.6,19.3-18.5,36.2c16.6,18.9,37.9,34.1,63,43.6
	c41,15.5,84.5,13,121.5-3.7c4.5-2,9-4.3,13.3-6.7c-0.6-10.1-2.6-42.4-15.8-42c-27.8,0.9-56.4-4.6-61.7-28.1
	c-5.2-23,15.3-50.4,32.9-63.7C276,317.3,277.2,309.9,275.4,302.5L275.4,302.5z M300.3,293.1c5.2-0.4,5.9,7.5,0.6,8
	c-5.6,0.5-11.4,0.9-17.4,1.1c2,9.7-0.1,19.5-9.5,26.6c-11.9,9-22.9,22.6-27.8,36.1c-4.8,13.2-4,26.1,9,33.9
	c8.6,5.2,22.3,8.1,42.7,7.4c19.4-0.7,22.6,29.7,23.8,45.2c29-18.7,52-46.9,64-81.8c-8.3,1.5-18.9,1.4-25.5-3.4
	c-5.9-4.3-6.8-10.7-3.7-17.3v0c7.3-15.7,9.9-28,8.9-36.5c-2.3-18.2-20.4-12.6-33.1-4.4c-23.9,15.3-39.9-28.9-24.1-43.8
	c-20.6-28.4-46.1-68.6-59.5-104.1c-6.7,14.1-19,23.6-35.6,24.3c-14.7,0.6-9.8,17-5,20c25.4,15.7,16.8,40.7-0.9,57
	c-11,10.1-25.1,16.2-34,13.6c-16.3-4.8-13.4-14.2-8.9-28.5c4.7-15,11.5-36.9-8.8-65.7c-82,47.8-103.6,155.9-47.6,231.7
	c3.2-29.5,42.9-34.3,51.8-78c1.9-9.6,6-12.1,11.5-10.9c16.2,3.3,39.5,50.5,67.6-44.5c2.1-7,6.3-10.2,11.6-10.6
	c5.6-0.5,12.2,2.7,18.1,8.1c5.1,4.6,9.8,10.9,12.7,17.7C287.4,294,293.8,293.6,300.3,293.1L300.3,293.1z M340.4,288.2
	c3.1-0.5,5.5,2.7,4.4,5.5c14.7-3.9,26.4,2.2,28.4,17.9c1.2,9.8-1.6,23.6-9.6,40.8l0,0c-3.1,6.5,1.8,9,8,9.9c4.9,0.7,11,0.3,16.7-1.4
	c11.8-42,5.6-86.7-16.4-123.9c-10,15.3-20,29.3-28.7,40.6c-6.4,8.3-18.8,8.3-25.2,0c-1.6-2.1-3.4-4.4-5.1-6.7
	c-8.1,9.4,0.6,39.8,14.9,30.6c2.7-1.7,5.4-3.2,7.9-4.5l-12.8,1.8c-5.2,0.7-6.2-7.3-1-7.9L340.4,288.2z M381.8,279
	c5-1.4,7.2,6.3,2.2,7.7l-23,5.7c-5.2,1.1-6.8-6.7-1.7-7.8L381.8,279z M446.6,248.6c1.7-1.4,4.2-1.2,5.6,0.5c1.4,1.7,1.2,4.2-0.5,5.6
	c-10.7,8.9-24.3,16.1-38,21.7c-2,0.8-4.4-0.1-5.2-2.2c-0.9-2,0.1-4.4,2.2-5.2C423.4,263.8,436.5,256.9,446.6,248.6L446.6,248.6z
	 M460,202.3c-2.6-4.5,4.3-8.5,6.9-4c8.3,14.3,7.1,29.2-2.3,42.7c-1.3,1.8-3.7,2.2-5.6,1c-1.8-1.2-2.2-3.7-1-5.5
	C465.6,225.5,466.7,213.9,460,202.3L460,202.3z M420.8,171.2c-4.7-2.3-1.3-9.5,3.4-7.2c11,5.3,21.7,11.8,30.3,19.5
	c3.9,3.5-1.4,9.4-5.3,5.9C441.3,182.2,431,176.1,420.8,171.2L420.8,171.2z M298.3,142.5c-5.2-0.4-4.6-8.4,0.6-8
	c19.3,1.5,38.8,4.1,57.5,7.9c5.2,1,3.6,8.8-1.6,7.8C336.3,146.5,317.6,144,298.3,142.5L298.3,142.5z M191.1,144.7
	c-5.2,0.6-6.2-7.3-1-7.9c13.2-1.6,25.9-2.7,39.4-3.3c5.2-0.3,5.6,7.7,0.4,8C217.2,142.1,203.8,143.2,191.1,144.7L191.1,144.7z
	 M136.4,155c-5.1,1.3-7.1-6.4-2-7.7c12.3-3.2,25.4-6,38.3-8c5.2-0.8,6.5,7.1,1.3,7.9C161.4,149.2,148.5,151.9,136.4,155L136.4,155z
	 M80.7,176.7c-4.6,2.6-8.5-4.3-4-6.9c12.3-7.1,26-12.7,40.1-17.3c5-1.6,7.5,6,2.5,7.6C105.9,164.4,92.2,170,80.7,176.7L80.7,176.7z
	 M51.7,232.7c2.6,4.6-4.5,8.4-7,3.9c-11.1-20.1-2.9-39.3,13.9-54.1c3.9-3.4,9.2,2.6,5.2,6C49.9,200.7,42.4,216,51.7,232.7
	L51.7,232.7z M76,256.2c4.5,2.8,0.2,9.6-4.3,6.7c-5.9-3.7-11.7-8.1-16.5-12.9c-3.7-3.7,1.8-9.4,5.6-5.7
	C65.3,248.8,70.5,252.7,76,256.2L76,256.2z"/>
</svg>
