<?xml version="1.0" encoding="utf-8"?>
<!-- Generator: Adobe Illustrator 26.5.3, SVG Export Plug-In . SVG Version: 6.00 Build 0)  -->
<svg version="1.1" id="Line" xmlns="http://www.w3.org/2000/svg" xmlns:xlink="http://www.w3.org/1999/xlink" x="0px" y="0px"
	 viewBox="0 0 128 128" style="enable-background:new 0 0 128 128;" xml:space="preserve">
<path d="M122.828,106.828l-8,8C114.047,115.609,113.023,116,112,116s-2.047-0.391-2.828-1.172c-1.562-1.562-1.562-4.094,0-5.656
	l1.172-1.172H64c-26.467,0-48-21.531-48-48s21.533-48,48-48s48,21.531,48,48c0,13.398-5.35,25.797-15.063,34.918
	c-1.611,1.508-4.143,1.438-5.654-0.18c-1.512-1.609-1.432-4.141,0.178-5.656C99.547,81.492,104,71.164,104,60
	c0-22.055-17.943-40-40-40S24,37.945,24,60s17.943,40,40,40h46.344l-1.172-1.172c-1.562-1.562-1.562-4.094,0-5.656
	s4.094-1.562,5.656,0l8,8C124.391,102.734,124.391,105.266,122.828,106.828z"/>
<path d="M29.4,108H12c-2.209,0-4-1.789-4-4s1.791-4,4-4h17.4c2.209,0,4,1.789,4,4S31.609,108,29.4,108z"/>
<path d="M64,92c-17.645,0-32-14.355-32-32s14.355-32,32-32s32,14.355,32,32S81.645,92,64,92z M64,36c-13.234,0-24,10.766-24,24
	s10.766,24,24,24s24-10.766,24-24S77.234,36,64,36z"/>
<path d="M54,74c-1.023,0-2.047-0.391-2.828-1.172c-1.562-1.562-1.562-4.094,0-5.656L60,58.344V44c0-2.211,1.791-4,4-4s4,1.789,4,4
	v16c0,1.062-0.422,2.078-1.172,2.828l-10,10C56.047,73.609,55.023,74,54,74z"/>
</svg>
