<?xml version="1.0" encoding="utf-8"?>
<!-- Generator: Adobe Illustrator 27.0.1, SVG Export Plug-In . SVG Version: 6.00 Build 0)  -->
<svg version="1.1" id="Layer_1" xmlns="http://www.w3.org/2000/svg" xmlns:xlink="http://www.w3.org/1999/xlink" x="0px" y="0px"
	 viewBox="0 0 512 512" style="enable-background:new 0 0 512 512;" xml:space="preserve">
<path d="M153.2,409.6v-81.1c0-2.2,0.3-4.5-1.4-6.4c-0.7-0.8-1.6-1.3-2.6-1.3H45.6c-2.4,0-4,2.7-4,5.2v83.6H153.2z M246.4,385.9
	l-15-43.7c-1.1-3.2-3.9-5.2-7.3-5.2h-21.5c-3.9,0-7,3.1-7,7v34.8c0,3.9,3.1,7,7,7H246.4z M225.5,433.3
	c-16.1-16.1-43.7-4.6-43.7,18.1s27.6,34.2,43.7,18.1C235.5,459.5,235.5,443.3,225.5,433.3L225.5,433.3z M207.4,417.8
	c18.3,0,33.2,14.7,33.6,32.9c3.9,0,7,0.5,9.8-2.3c1.4-1.4,2.3-3.3,2.3-5.5v-45.4c0-2-1.5-3.7-3.6-3.7h-46.9c-8.2,0-15-6.7-15-15V344
	c0-8.3,6.7-15,15-15h13.9c-0.9-2.7-1.5-5.2-3.9-6.9c-1.3-0.9-2.8-1.4-4.5-1.4H169c-4.3,0-7.7,3.5-7.7,7.7v122.2h12.5
	C174.2,432.4,189.1,417.8,207.4,417.8L207.4,417.8z M103.6,433.3c-16.1-16.1-43.7-4.6-43.7,18.1s27.6,34.2,43.7,18.1
	C113.6,459.5,113.6,443.3,103.6,433.3L103.6,433.3z M85.4,417.8c18.3,0,33.2,14.7,33.6,32.9h34.2v-33.1H41.6v21.8
	c0,5.9,4,11.3,10.2,11.3C52.2,432.4,67.2,417.8,85.4,417.8L85.4,417.8z M89.6,447.2c-3.7-3.7-10.1-1.1-10.1,4.2s6.4,7.9,10.1,4.2
	C92,453.2,92,449.5,89.6,447.2L89.6,447.2z M85.4,437.5c12.4,0,18.6,15,9.9,23.8c-8.8,8.8-23.8,2.5-23.8-9.8
	C71.5,443.7,77.8,437.5,85.4,437.5L85.4,437.5z M211.6,447.2c-3.7-3.7-10.1-1.1-10.1,4.2s6.4,7.9,10.1,4.2
	C213.9,453.2,213.9,449.5,211.6,447.2L211.6,447.2z M207.4,437.5c12.4,0,18.6,15,9.8,23.8c-8.7,8.8-23.8,2.5-23.8-9.8
	C193.5,443.7,199.7,437.5,207.4,437.5L207.4,437.5z M354.6,57.9h-22.1v10.9h22.1V57.9z M328.5,49.9h30c2.2,0,4,1.8,4,4v18.9
	c0,2.2-1.8,4-4,4h-30c-2.2,0-4-1.8-4-4V53.9C324.5,51.7,326.3,49.9,328.5,49.9L328.5,49.9z M401.8,57.9h-22.1v10.9h22.1V57.9z
	 M375.8,49.9h30.1c2.2,0,4,1.8,4,4v18.9c0,2.2-1.8,4-4,4h-30.1c-2.2,0-4-1.8-4-4V53.9C371.8,51.7,373.6,49.9,375.8,49.9L375.8,49.9z
	 M449.2,57.9h-22.1v10.9h22.1V57.9z M423.1,49.9h30c2.2,0,4,1.8,4,4v18.9c0,2.2-1.8,4-4,4h-30c-2.2,0-4-1.8-4-4V53.9
	C419.1,51.7,420.9,49.9,423.1,49.9L423.1,49.9z M368.3,98h45.1c6.4,0,11.6,5.2,11.6,11.6v46.8c0,1.2-0.2,2.5-0.6,3.6h33.1
	c7,0,12.8-5.8,12.8-12.8V47.8c0-7-5.8-12.8-12.8-12.8H324.1c-7,0-12.8,5.8-12.8,12.8v99.5c0,7,5.8,12.8,12.8,12.8h33.1
	c-0.4-1.1-0.6-2.4-0.6-3.6v-46.8C356.7,103.2,361.9,98,368.3,98L368.3,98z M386.8,160v-54h-18.6c-2,0-3.6,1.6-3.6,3.6v46.8
	c0,2,1.6,3.6,3.6,3.6H386.8z M394.8,106.1v54h18.5c2,0,3.6-1.6,3.6-3.6v-46.8c0-2-1.6-3.6-3.6-3.6H394.8z M272.9,182.8l-9.7,0.1
	c-0.7,0.7,1,5.7-2.1,9.8c-2.8,3.6-6.2,3.3-10.9,5.4c-1.9,0.8-3.8,1.7-5.5,2.7c-3.8,2.2-8.5,1.6-11.5-1.5l-2.6-2.6v0l-0.6-0.1
	l-6.7,6.7l0,0v0.6c2.6,2.6,4.8,4.3,5.3,8.1c0.6,4.4-2,6.7-3.9,11.5c-2,4.8-1.9,8.2-5.4,10.9c-4.5,3.5-9.9,1-9.9,2.4l0.1,9.7
	c0.7,0.7,5.7-1,9.8,2.1c3.6,2.8,3.3,6.2,5.4,10.9c0.8,1.9,1.7,3.7,2.7,5.5c2.2,3.8,1.6,8.5-1.5,11.5c-1.3,1.3-3.1,2.7-2.6,3.2l7,6.8
	c0.9,0,3.2-4.8,8.4-5.4c4.4-0.6,6.7,1.9,11.5,3.9l0,0c4.8,2,8.2,1.8,10.9,5.4c3.5,4.5,1,9.9,2.4,9.9l9.7-0.1
	c0.7-0.7-1.1-5.7,2.1-9.8c2.7-3.5,6.1-3.4,10.9-5.4c4.8-2,7.2-4.5,11.5-3.9c5.6,0.7,7.7,6.3,8.7,5.3l6.7-6.7v0c1-1-4.6-3.1-5.3-8.7
	c-0.6-4.5,2-6.7,3.9-11.5c0.8-1.9,1.4-3.8,2-5.8c1.1-4.2,4.9-7.1,9.2-7.1l4-0.1l0,0v-10l0,0c-0.7-0.6-5.7,1-9.8-2.1
	c-3.5-2.7-3.4-6.2-5.4-10.9c-2-4.8-4.5-7.2-3.9-11.5c0.5-3.8,2.7-5.5,5.3-8.1l0,0v-0.6l-7-6.8c-0.9,0-3.2,4.8-8.4,5.4
	c-4.4,0.6-6.7-2-11.6-3.9c-4.8-2-8.2-1.9-10.9-5.4C271.8,188.2,274.2,182.8,272.9,182.8L272.9,182.8z M284,225.9
	c-14.1-14.2-38.4-4.1-38.4,15.9c0,20,24.3,30.1,38.4,15.9C292.8,249,292.8,234.7,284,225.9L284,225.9z M268,211.3
	c16.9,0,30.5,13.7,30.5,30.5c0,16.9-13.7,30.5-30.5,30.5c-16.8,0-30.5-13.7-30.5-30.5C237.5,225,251.2,211.3,268,211.3L268,211.3z
	 M95.1,35v58.5L115.5,82l0,0c1.2-0.7,2.7-0.7,3.9,0l20.2,11.5V35H95.1z M147.6,35v65.4c0,2.9-3.2,5.2-6.2,3.3l-23.9-13.6L93,103.8
	c-2.7,1.5-6-0.5-6-3.5l0,0V35H53.5c-6.5,0-11.8,5.3-11.8,11.8v118.8c0,6.5,5.3,11.8,11.8,11.8h127.8c6.5,0,11.8-5.3,11.8-11.8V46.8
	c0-6.5-5.3-11.8-11.8-11.8H147.6z M423.1,372.9c-5.6,3.1-11.9,4.8-18.7,4.8s-13.2-1.8-18.7-4.8h-1.9c-20,0-36.4,16.4-36.4,36.4v42.3
	c0,5.8,4.7,10.6,10.5,10.6h6.7v-55.7c0-5.2,8-5.2,8,0v55.7h63.6v-55.7c0-5.2,8-5.2,8,0v55.7h6.7c5.8,0,10.5-4.8,10.5-10.6v-42.3
	c0-20-16.4-36.4-36.4-36.4H423.1z M404.4,301c-16.8,0-30.6,13.8-30.6,30.6v7.5c0,16.8,13.8,30.6,30.6,30.6S435,356,435,339.2v-7.5
	C435,314.9,421.3,301,404.4,301L404.4,301z M127.8,297.8c1.9,4.9-5.5,7.8-7.4,2.9c-13-32.8-14.7-69.1-4.8-103c1.5-5,9.1-2.8,7.7,2.2
	C113.8,232,115.5,266.8,127.8,297.8L127.8,297.8z M332.9,378.8c4.7-2.2,8.2,5,3.4,7.2c-15.9,7.5-32.9,12.3-50.6,14.1
	c-5.2,0.5-6-7.4-0.8-7.9C301.7,390.5,317.8,385.9,332.9,378.8L332.9,378.8z M408.3,186c-2-4.9,5.5-7.9,7.4-3
	c12.2,30.4,14.5,63.9,7.1,95.8c-1.2,5.1-9,3.3-7.8-1.8C422.2,246.6,419.9,214.9,408.3,186L408.3,186z M217.4,100
	c-5,1.8-7.7-5.8-2.7-7.5c24.2-8.6,50.1-11.2,75.7-7.7c5.2,0.7,4.1,8.6-1.1,7.9C265.1,89.3,240.4,91.7,217.4,100L217.4,100z"/>
</svg>
